solid 
 facet normal -8.944272e-01  0.000000e+00  4.472136e-01
   outer loop
     vertex -2.400000e+01 -5.500000e+01 -2.400000e+01
     vertex -1.400000e+01 -5.500000e+01 -4.000000e+00
     vertex -1.400000e+01 -5.100000e+01 -4.000000e+00
   endloop
 endfacet
 facet normal -8.944272e-01  0.000000e+00  4.472136e-01
   outer loop
     vertex -2.400000e+01 -5.500000e+01 -2.400000e+01
     vertex -1.400000e+01 -5.100000e+01 -4.000000e+00
     vertex -2.400000e+01 -5.100000e+01 -2.400000e+01
   endloop
 endfacet
 facet normal -1.000000e+00  0.000000e+00 -0.000000e+00
   outer loop
     vertex -1.400000e+01  5.500000e+01  2.000000e+01
     vertex -1.400000e+01  5.500000e+01 -4.000000e+00
     vertex -1.400000e+01  5.100000e+01 -4.000000e+00
   endloop
 endfacet
 facet normal -1.000000e+00  0.000000e+00  0.000000e+00
   outer loop
     vertex -1.400000e+01 -5.100000e+01 -4.000000e+00
     vertex -1.400000e+01  5.100000e+01 -2.400000e+01
     vertex -1.400000e+01 -5.100000e+01 -2.400000e+01
   endloop
 endfacet
 facet normal -1.000000e+00  0.000000e+00  0.000000e+00
   outer loop
     vertex -1.400000e+01 -5.100000e+01 -4.000000e+00
     vertex -1.400000e+01  5.100000e+01 -4.000000e+00
     vertex -1.400000e+01  5.100000e+01 -2.400000e+01
   endloop
 endfacet
 facet normal -1.000000e+00  0.000000e+00  0.000000e+00
   outer loop
     vertex -1.400000e+01 -5.100000e+01 -4.000000e+00
     vertex -1.400000e+01  5.500000e+01  2.000000e+01
     vertex -1.400000e+01  5.100000e+01 -4.000000e+00
   endloop
 endfacet
 facet normal -1.000000e+00  0.000000e+00  0.000000e+00
   outer loop
     vertex -1.400000e+01 -5.500000e+01  2.000000e+01
     vertex -1.400000e+01 -5.100000e+01 -4.000000e+00
     vertex -1.400000e+01 -5.500000e+01 -4.000000e+00
   endloop
 endfacet
 facet normal -1.000000e+00  0.000000e+00  0.000000e+00
   outer loop
     vertex -1.400000e+01 -5.500000e+01  2.000000e+01
     vertex -1.400000e+01  5.500000e+01  2.000000e+01
     vertex -1.400000e+01 -5.100000e+01 -4.000000e+00
   endloop
 endfacet
 facet normal  0.000000e+00  0.000000e+00 -1.000000e+00
   outer loop
     vertex -1.400000e+01  5.100000e+01 -2.400000e+01
     vertex -2.400000e+01  5.100000e+01 -2.400000e+01
     vertex -2.400000e+01  5.500000e+01 -2.400000e+01
   endloop
 endfacet
 facet normal -0.000000e+00  0.000000e+00 -1.000000e+00
   outer loop
     vertex  2.400000e+01  5.500000e+01 -2.400000e+01
     vertex -1.400000e+01  5.100000e+01 -2.400000e+01
     vertex -2.400000e+01  5.500000e+01 -2.400000e+01
   endloop
 endfacet
 facet normal  0.000000e+00  0.000000e+00 -1.000000e+00
   outer loop
     vertex  2.400000e+01  5.500000e+01 -2.400000e+01
     vertex  1.400000e+01  5.100000e+01 -2.400000e+01
     vertex -1.400000e+01  5.100000e+01 -2.400000e+01
   endloop
 endfacet
 facet normal  0.000000e+00  0.000000e+00 -1.000000e+00
   outer loop
     vertex  2.400000e+01  5.100000e+01 -2.400000e+01
     vertex  1.400000e+01  5.100000e+01 -2.400000e+01
     vertex  2.400000e+01  5.500000e+01 -2.400000e+01
   endloop
 endfacet
 facet normal -0.000000e+00  0.000000e+00 -1.000000e+00
   outer loop
     vertex -1.400000e+01 -5.100000e+01 -2.400000e+01
     vertex -2.400000e+01 -5.500000e+01 -2.400000e+01
     vertex -2.400000e+01 -5.100000e+01 -2.400000e+01
   endloop
 endfacet
 facet normal  0.000000e+00  0.000000e+00 -1.000000e+00
   outer loop
     vertex -1.400000e+01 -5.100000e+01 -2.400000e+01
     vertex -1.400000e+01  5.100000e+01 -2.400000e+01
     vertex  1.400000e+01  5.100000e+01 -2.400000e+01
   endloop
 endfacet
 facet normal  0.000000e+00  0.000000e+00 -1.000000e+00
   outer loop
     vertex  1.400000e+01 -5.100000e+01 -2.400000e+01
     vertex -1.400000e+01 -5.100000e+01 -2.400000e+01
     vertex  1.400000e+01  5.100000e+01 -2.400000e+01
   endloop
 endfacet
 facet normal  0.000000e+00  0.000000e+00 -1.000000e+00
   outer loop
     vertex  2.400000e+01 -5.500000e+01 -2.400000e+01
     vertex  1.400000e+01 -5.100000e+01 -2.400000e+01
     vertex  2.400000e+01 -5.100000e+01 -2.400000e+01
   endloop
 endfacet
 facet normal  0.000000e+00  0.000000e+00 -1.000000e+00
   outer loop
     vertex  2.400000e+01 -5.500000e+01 -2.400000e+01
     vertex -2.400000e+01 -5.500000e+01 -2.400000e+01
     vertex -1.400000e+01 -5.100000e+01 -2.400000e+01
   endloop
 endfacet
 facet normal  0.000000e+00  0.000000e+00 -1.000000e+00
   outer loop
     vertex  2.400000e+01 -5.500000e+01 -2.400000e+01
     vertex -1.400000e+01 -5.100000e+01 -2.400000e+01
     vertex  1.400000e+01 -5.100000e+01 -2.400000e+01
   endloop
 endfacet
 facet normal -0.000000e+00 -1.000000e+00  0.000000e+00
   outer loop
     vertex  1.400000e+01 -5.500000e+01 -4.000000e+00
     vertex -1.400000e+01 -5.500000e+01 -4.000000e+00
     vertex -2.400000e+01 -5.500000e+01 -2.400000e+01
   endloop
 endfacet
 facet normal  0.000000e+00 -1.000000e+00 -0.000000e+00
   outer loop
     vertex  1.400000e+01 -5.500000e+01 -4.000000e+00
     vertex -2.400000e+01 -5.500000e+01 -2.400000e+01
     vertex  2.400000e+01 -5.500000e+01 -2.400000e+01
   endloop
 endfacet
 facet normal  0.000000e+00 -1.000000e+00  0.000000e+00
   outer loop
     vertex  1.400000e+01 -5.500000e+01 -4.000000e+00
     vertex -1.400000e+01 -5.500000e+01  2.000000e+01
     vertex -1.400000e+01 -5.500000e+01 -4.000000e+00
   endloop
 endfacet
 facet normal -0.000000e+00 -1.000000e+00 -0.000000e+00
   outer loop
     vertex  1.400000e+01 -5.500000e+01  2.000000e+01
     vertex -1.400000e+01 -5.500000e+01  2.000000e+01
     vertex  1.400000e+01 -5.500000e+01 -4.000000e+00
   endloop
 endfacet
 facet normal  0.000000e+00  1.000000e+00  0.000000e+00
   outer loop
     vertex -1.400000e+01 -5.100000e+01 -4.000000e+00
     vertex -1.400000e+01 -5.100000e+01 -2.400000e+01
     vertex -2.400000e+01 -5.100000e+01 -2.400000e+01
   endloop
 endfacet
 facet normal  0.000000e+00  0.000000e+00  1.000000e+00
   outer loop
     vertex  1.400000e+01 -5.500000e+01  2.000000e+01
     vertex -1.000000e+01 -5.100000e+01  2.000000e+01
     vertex -1.400000e+01 -5.500000e+01  2.000000e+01
   endloop
 endfacet
 facet normal  0.000000e+00  0.000000e+00  1.000000e+00
   outer loop
     vertex  1.000000e+01 -5.100000e+01  2.000000e+01
     vertex -1.000000e+01 -5.100000e+01  2.000000e+01
     vertex  1.400000e+01 -5.500000e+01  2.000000e+01
   endloop
 endfacet
 facet normal  0.000000e+00  0.000000e+00  1.000000e+00
   outer loop
     vertex -1.400000e+01  5.500000e+01  2.000000e+01
     vertex -1.000000e+01 -5.100000e+01  2.000000e+01
     vertex -1.000000e+01  5.100000e+01  2.000000e+01
   endloop
 endfacet
 facet normal  0.000000e+00  0.000000e+00  1.000000e+00
   outer loop
     vertex -1.400000e+01  5.500000e+01  2.000000e+01
     vertex -1.400000e+01 -5.500000e+01  2.000000e+01
     vertex -1.000000e+01 -5.100000e+01  2.000000e+01
   endloop
 endfacet
 facet normal  0.000000e+00  0.000000e+00  1.000000e+00
   outer loop
     vertex  1.000000e+01  5.100000e+01  2.000000e+01
     vertex  1.000000e+01 -5.100000e+01  2.000000e+01
     vertex  1.400000e+01 -5.500000e+01  2.000000e+01
   endloop
 endfacet
 facet normal  0.000000e+00  0.000000e+00  1.000000e+00
   outer loop
     vertex  1.400000e+01  5.500000e+01  2.000000e+01
     vertex -1.000000e+01  5.100000e+01  2.000000e+01
     vertex  1.000000e+01  5.100000e+01  2.000000e+01
   endloop
 endfacet
 facet normal  0.000000e+00  0.000000e+00  1.000000e+00
   outer loop
     vertex  1.400000e+01  5.500000e+01  2.000000e+01
     vertex  1.000000e+01  5.100000e+01  2.000000e+01
     vertex  1.400000e+01 -5.500000e+01  2.000000e+01
   endloop
 endfacet
 facet normal  0.000000e+00  0.000000e+00  1.000000e+00
   outer loop
     vertex  1.400000e+01  5.500000e+01  2.000000e+01
     vertex -1.400000e+01  5.500000e+01  2.000000e+01
     vertex -1.000000e+01  5.100000e+01  2.000000e+01
   endloop
 endfacet
 facet normal  0.000000e+00  1.000000e+00  0.000000e+00
   outer loop
     vertex  1.400000e+01  5.500000e+01 -4.000000e+00
     vertex -2.400000e+01  5.500000e+01 -2.400000e+01
     vertex -1.400000e+01  5.500000e+01 -4.000000e+00
   endloop
 endfacet
 facet normal  0.000000e+00  1.000000e+00  0.000000e+00
   outer loop
     vertex  1.400000e+01  5.500000e+01 -4.000000e+00
     vertex  2.400000e+01  5.500000e+01 -2.400000e+01
     vertex -2.400000e+01  5.500000e+01 -2.400000e+01
   endloop
 endfacet
 facet normal  0.000000e+00  1.000000e+00  0.000000e+00
   outer loop
     vertex  1.400000e+01  5.500000e+01 -4.000000e+00
     vertex -1.400000e+01  5.500000e+01 -4.000000e+00
     vertex -1.400000e+01  5.500000e+01  2.000000e+01
   endloop
 endfacet
 facet normal  0.000000e+00  1.000000e+00  0.000000e+00
   outer loop
     vertex  1.400000e+01  5.500000e+01  2.000000e+01
     vertex  1.400000e+01  5.500000e+01 -4.000000e+00
     vertex -1.400000e+01  5.500000e+01  2.000000e+01
   endloop
 endfacet
 facet normal -8.944272e-01  0.000000e+00  4.472136e-01
   outer loop
     vertex -2.400000e+01  5.100000e+01 -2.400000e+01
     vertex -1.400000e+01  5.100000e+01 -4.000000e+00
     vertex -1.400000e+01  5.500000e+01 -4.000000e+00
   endloop
 endfacet
 facet normal -8.944272e-01  0.000000e+00  4.472136e-01
   outer loop
     vertex -2.400000e+01  5.100000e+01 -2.400000e+01
     vertex -1.400000e+01  5.500000e+01 -4.000000e+00
     vertex -2.400000e+01  5.500000e+01 -2.400000e+01
   endloop
 endfacet
 facet normal  0.000000e+00 -1.000000e+00 -0.000000e+00
   outer loop
     vertex -1.400000e+01  5.100000e+01 -4.000000e+00
     vertex -2.400000e+01  5.100000e+01 -2.400000e+01
     vertex -1.400000e+01  5.100000e+01 -2.400000e+01
   endloop
 endfacet
 facet normal  8.944272e-01  0.000000e+00  4.472136e-01
   outer loop
     vertex  2.400000e+01 -5.100000e+01 -2.400000e+01
     vertex  1.400000e+01 -5.100000e+01 -4.000000e+00
     vertex  1.400000e+01 -5.500000e+01 -4.000000e+00
   endloop
 endfacet
 facet normal  8.944272e-01  0.000000e+00  4.472136e-01
   outer loop
     vertex  2.400000e+01 -5.100000e+01 -2.400000e+01
     vertex  1.400000e+01 -5.500000e+01 -4.000000e+00
     vertex  2.400000e+01 -5.500000e+01 -2.400000e+01
   endloop
 endfacet
 facet normal  1.000000e+00  0.000000e+00  0.000000e+00
   outer loop
     vertex  1.400000e+01  5.500000e+01  2.000000e+01
     vertex  1.400000e+01  5.100000e+01 -4.000000e+00
     vertex  1.400000e+01  5.500000e+01 -4.000000e+00
   endloop
 endfacet
 facet normal  1.000000e+00  0.000000e+00  0.000000e+00
   outer loop
     vertex  1.400000e+01 -5.100000e+01 -4.000000e+00
     vertex  1.400000e+01 -5.100000e+01 -2.400000e+01
     vertex  1.400000e+01  5.100000e+01 -2.400000e+01
   endloop
 endfacet
 facet normal  1.000000e+00 -0.000000e+00  0.000000e+00
   outer loop
     vertex  1.400000e+01 -5.100000e+01 -4.000000e+00
     vertex  1.400000e+01  5.100000e+01 -2.400000e+01
     vertex  1.400000e+01  5.100000e+01 -4.000000e+00
   endloop
 endfacet
 facet normal  1.000000e+00  0.000000e+00  0.000000e+00
   outer loop
     vertex  1.400000e+01 -5.100000e+01 -4.000000e+00
     vertex  1.400000e+01  5.100000e+01 -4.000000e+00
     vertex  1.400000e+01  5.500000e+01  2.000000e+01
   endloop
 endfacet
 facet normal  1.000000e+00  0.000000e+00  0.000000e+00
   outer loop
     vertex  1.400000e+01 -5.500000e+01  2.000000e+01
     vertex  1.400000e+01 -5.500000e+01 -4.000000e+00
     vertex  1.400000e+01 -5.100000e+01 -4.000000e+00
   endloop
 endfacet
 facet normal  1.000000e+00 -0.000000e+00  0.000000e+00
   outer loop
     vertex  1.400000e+01 -5.500000e+01  2.000000e+01
     vertex  1.400000e+01 -5.100000e+01 -4.000000e+00
     vertex  1.400000e+01  5.500000e+01  2.000000e+01
   endloop
 endfacet
 facet normal  1.000000e+00  0.000000e+00  0.000000e+00
   outer loop
     vertex -1.000000e+01 -5.100000e+01  2.000000e+01
     vertex -1.000000e+01 -5.100000e+01 -2.000000e+01
     vertex -1.000000e+01  5.100000e+01 -2.000000e+01
   endloop
 endfacet
 facet normal  1.000000e+00 -0.000000e+00  0.000000e+00
   outer loop
     vertex -1.000000e+01 -5.100000e+01  2.000000e+01
     vertex -1.000000e+01  5.100000e+01 -2.000000e+01
     vertex -1.000000e+01  5.100000e+01  2.000000e+01
   endloop
 endfacet
 facet normal  0.000000e+00 -1.000000e+00 -0.000000e+00
   outer loop
     vertex  1.000000e+01  5.100000e+01  2.000000e+01
     vertex -1.000000e+01  5.100000e+01 -2.000000e+01
     vertex  1.000000e+01  5.100000e+01 -2.000000e+01
   endloop
 endfacet
 facet normal -0.000000e+00 -1.000000e+00  0.000000e+00
   outer loop
     vertex  1.000000e+01  5.100000e+01  2.000000e+01
     vertex -1.000000e+01  5.100000e+01  2.000000e+01
     vertex -1.000000e+01  5.100000e+01 -2.000000e+01
   endloop
 endfacet
 facet normal -1.000000e+00  0.000000e+00  0.000000e+00
   outer loop
     vertex  1.000000e+01 -5.100000e+01  2.000000e+01
     vertex  1.000000e+01  5.100000e+01 -2.000000e+01
     vertex  1.000000e+01 -5.100000e+01 -2.000000e+01
   endloop
 endfacet
 facet normal -1.000000e+00  0.000000e+00  0.000000e+00
   outer loop
     vertex  1.000000e+01 -5.100000e+01  2.000000e+01
     vertex  1.000000e+01  5.100000e+01  2.000000e+01
     vertex  1.000000e+01  5.100000e+01 -2.000000e+01
   endloop
 endfacet
 facet normal  0.000000e+00  1.000000e+00  0.000000e+00
   outer loop
     vertex  1.000000e+01 -5.100000e+01  2.000000e+01
     vertex  1.000000e+01 -5.100000e+01 -2.000000e+01
     vertex -1.000000e+01 -5.100000e+01 -2.000000e+01
   endloop
 endfacet
 facet normal  0.000000e+00  1.000000e+00  0.000000e+00
   outer loop
     vertex  1.000000e+01 -5.100000e+01  2.000000e+01
     vertex -1.000000e+01 -5.100000e+01 -2.000000e+01
     vertex -1.000000e+01 -5.100000e+01  2.000000e+01
   endloop
 endfacet
 facet normal  8.944272e-01  0.000000e+00  4.472136e-01
   outer loop
     vertex  2.400000e+01  5.500000e+01 -2.400000e+01
     vertex  1.400000e+01  5.500000e+01 -4.000000e+00
     vertex  1.400000e+01  5.100000e+01 -4.000000e+00
   endloop
 endfacet
 facet normal  8.944272e-01  0.000000e+00  4.472136e-01
   outer loop
     vertex  2.400000e+01  5.500000e+01 -2.400000e+01
     vertex  1.400000e+01  5.100000e+01 -4.000000e+00
     vertex  2.400000e+01  5.100000e+01 -2.400000e+01
   endloop
 endfacet
 facet normal  0.000000e+00 -1.000000e+00  0.000000e+00
   outer loop
     vertex  1.400000e+01  5.100000e+01 -4.000000e+00
     vertex  1.400000e+01  5.100000e+01 -2.400000e+01
     vertex  2.400000e+01  5.100000e+01 -2.400000e+01
   endloop
 endfacet
 facet normal  0.000000e+00  1.000000e+00  0.000000e+00
   outer loop
     vertex  1.400000e+01 -5.100000e+01 -4.000000e+00
     vertex  2.400000e+01 -5.100000e+01 -2.400000e+01
     vertex  1.400000e+01 -5.100000e+01 -2.400000e+01
   endloop
 endfacet
 facet normal  0.000000e+00  0.000000e+00  1.000000e+00
   outer loop
     vertex  1.000000e+01  5.100000e+01 -2.000000e+01
     vertex -1.000000e+01  5.100000e+01 -2.000000e+01
     vertex -1.000000e+01 -5.100000e+01 -2.000000e+01
   endloop
 endfacet
 facet normal  0.000000e+00  0.000000e+00  1.000000e+00
   outer loop
     vertex  1.000000e+01  5.100000e+01 -2.000000e+01
     vertex -1.000000e+01 -5.100000e+01 -2.000000e+01
     vertex  1.000000e+01 -5.100000e+01 -2.000000e+01
   endloop
 endfacet
endsolid
